<svg width="135" height="135" viewBox="0 0 135 135" fill="none" xmlns="http://www.w3.org/2000/svg">
<path d="M37.2372 21.6298L23.0784 74.4711M23.0784 74.4711L18.3588 92.0848M23.0784 74.4711L67.1128 86.2701M102.34 95.7092L97.6207 113.323M102.34 95.7092L67.1128 86.2701M102.34 95.7092L109.42 69.2886C110.723 64.4247 107.836 59.4252 102.973 58.1219L76.552 51.0426L67.1128 86.2701M59.802 60.7132C58.4987 65.5771 53.4992 68.4635 48.6353 67.1603C43.7714 65.857 40.8849 60.8575 42.1882 55.9936C43.4915 51.1297 48.491 48.2432 53.3549 49.5465C58.2188 50.8498 61.1052 55.8493 59.802 60.7132Z" stroke="#212121" stroke-width="9.11755" stroke-linecap="round" stroke-linejoin="round"/>
</svg>
