<svg width="135" height="135" viewBox="0 0 135 135" fill="none" xmlns="http://www.w3.org/2000/svg">
<path d="M22.7623 93.3594L66.7967 105.158M22.7623 93.3594C26.0205 81.1997 38.5192 73.9835 50.679 77.2417C62.8387 80.4999 70.0549 92.9986 66.7967 105.158M22.7623 93.3594C28.5831 71.6357 44.9371 55.5471 64.8571 49.1162M66.7967 105.158L93.2173 112.238M81.9349 92.6962L101.477 81.4138M64.8571 49.1162L75.3321 67.2595L79.2801 64.9801M64.8571 49.1162L60.3205 41.2588L76.1126 32.1413L91.1242 58.142L87.1762 60.4214M87.1762 60.4214L79.2801 64.9801M87.1762 60.4214L91.1148 67.2432L83.2187 71.802L79.2801 64.9801" stroke="#212121" stroke-width="9.11755" stroke-linecap="round" stroke-linejoin="round"/>
</svg>
