<svg width="134" height="135" viewBox="0 0 134 135" fill="none" xmlns="http://www.w3.org/2000/svg">
<path d="M70.4967 89.2173L75.3513 71.0997C76.0415 68.5236 77.217 66.1029 78.8146 63.9674L84.273 56.6715C88.0686 51.598 95.2228 50.4877 100.378 54.1722C104.329 56.9964 106.114 61.9754 104.857 66.6666L102.986 73.648C102.099 76.9591 100.453 80.0182 98.1785 82.5829L94.7121 86.4921C92.5718 88.9057 90.7021 91.5463 89.1364 94.3667L86.9305 98.3403M70.4967 89.2173L86.9305 98.3403M70.4967 89.2173L65.9352 97.4342C63.4159 101.972 65.1924 107.449 69.7305 109.968C74.2686 112.487 79.9897 110.851 82.5089 106.313L86.9305 98.3403M57.8601 65.9393L62.7147 47.8217C63.4049 45.2457 63.5973 42.5615 63.2814 39.9134L62.2023 30.8657C61.452 24.5741 55.8114 20.0355 49.505 20.649C44.671 21.1192 40.6358 24.5387 39.3788 29.2299L37.5082 36.2113C36.6209 39.5224 36.5168 42.9946 37.2041 46.3529L38.2515 51.4715C38.8982 54.6319 39.1971 57.8536 39.1429 61.079L39.0664 65.6232M57.8601 65.9393L39.0664 65.6232M57.8601 65.9393L57.702 75.3361C57.6147 80.5258 53.3368 84.6622 48.1471 84.5749C42.9574 84.4876 38.8211 80.2097 38.9084 75.02L39.0664 65.6232" stroke="#212121" stroke-width="9.11755" stroke-linecap="round" stroke-linejoin="round"/>
</svg>
