<svg width="134" height="135" viewBox="0 0 134 135" fill="none" xmlns="http://www.w3.org/2000/svg">
<path d="M59.0569 79.1253L59.0613 79.1265M52.6098 67.9586L52.6142 67.9598M93.4206 74.1743L95.3089 77.4449C97.8266 81.8058 96.3325 87.382 91.9717 89.8997L74.2637 100.123C69.9028 102.641 64.3266 101.147 61.8089 96.7861L59.9206 93.5155M93.4206 74.1743L96.6912 72.286C101.052 69.7682 102.546 64.192 100.028 59.8312L89.8048 42.1232C87.2871 37.7624 81.7109 36.2682 77.35 38.786L74.0794 40.6743M93.4206 74.1743L59.9206 93.5155M59.9206 93.5155L56.65 95.4038C52.2891 97.9216 46.7129 96.4274 44.1952 92.0666L33.9715 74.3586C31.4537 69.9977 32.9479 64.4216 37.3087 61.9038L40.5794 60.0155M40.5794 60.0155L38.6911 56.7449C36.1733 52.384 37.6675 46.8078 42.0283 44.2901L59.7363 34.0664C64.0971 31.5486 69.6733 33.0428 72.1911 37.4036L74.0794 40.6743M40.5794 60.0155L74.0794 40.6743M81.3902 66.2311L81.3946 66.2323M74.9431 55.0645L74.9475 55.0657M67 67.0949L67.0044 67.0961" stroke="#212121" stroke-width="9.11755" stroke-linecap="round" stroke-linejoin="round"/>
</svg>
