<svg width="134" height="134" viewBox="0 0 134 134" fill="none" xmlns="http://www.w3.org/2000/svg">
<path d="M89.0173 72.8995C87.714 77.7634 90.6005 82.7629 95.4644 84.0662C100.328 85.3695 105.328 82.483 106.631 77.6191C107.934 72.7552 105.048 67.7557 100.184 66.4524C95.32 65.1492 90.3206 68.0356 89.0173 72.8995ZM89.0173 72.8995L71.4035 68.1799M71.4035 68.1799C69.4486 75.4758 61.9494 79.8055 54.6535 77.8505C51.7896 77.0832 49.3828 75.4615 47.6337 73.3332M71.4035 68.1799C73.3585 60.8841 69.0288 53.3848 61.7329 51.4299C58.869 50.6626 55.9738 50.8635 53.3949 51.8322M47.6342 36.4554C50.2949 35.4561 52.4505 33.2311 53.2422 30.2765C54.5455 25.4126 51.659 20.4131 46.7951 19.1098C41.9312 17.8065 36.9317 20.693 35.6285 25.5569C34.3252 30.4208 37.2116 35.4203 42.0755 36.7236C43.9848 37.2352 45.9149 37.1012 47.6342 36.4554ZM47.6342 36.4554L53.3949 51.8322M53.3949 51.8322C49.4039 53.3312 46.1705 56.6686 44.9829 61.1005C43.7954 65.5325 44.9269 70.0395 47.6337 73.3332M34.9564 83.7695C33.7904 82.3506 32.1858 81.2695 30.2766 80.7579C25.4127 79.4547 20.4132 82.3411 19.1099 87.205C17.8066 92.0689 20.6931 97.0684 25.557 98.3717C30.4209 99.675 35.4204 96.7885 36.7236 91.9246C37.5153 88.97 36.761 85.9653 34.9564 83.7695ZM34.9564 83.7695L47.6337 73.3332" stroke="#212121" stroke-width="9.11755" stroke-linecap="round" stroke-linejoin="round"/>
</svg>
