<svg width="108" height="134" viewBox="0 0 108 134" fill="none" xmlns="http://www.w3.org/2000/svg">
<path d="M85.5248 86.1099L94.3316 88.4697C99.1955 89.773 102.082 94.7724 100.779 99.6363C99.4754 104.5 94.4759 107.387 89.612 106.083L45.5777 94.2845M85.5248 86.1099L80.8052 103.724M85.5248 86.1099L67.911 81.3903M84.1134 38.5358C90.373 40.2131 95.6968 43.6394 99.7 48.1481M106.678 77.6192C107.945 72.8916 108.081 68.1275 107.252 63.614M66.4997 33.8162C63.8931 43.544 69.666 53.543 79.3938 56.1496C80.7285 56.5072 81.9638 57.0503 83.0796 57.7438M27.9639 89.5649C23.1 88.2616 20.2136 83.2621 21.5169 78.3982C22.8201 73.5343 27.8196 70.6478 32.6835 71.9511L50.2973 76.6707M117.297 37.9882L99.7 48.1481M16.7973 96.0119L50.2973 76.6707M50.2973 76.6707L83.0796 57.7438M83.0796 57.7438L99.7 48.1481" stroke="#212121" stroke-width="9.11755" stroke-linecap="round" stroke-linejoin="round"/>
</svg>
