<svg width="135" height="135" viewBox="0 0 135 135" fill="none" xmlns="http://www.w3.org/2000/svg">
<path d="M39.878 92.5621L34.3124 91.0708C27.7655 89.3165 25.3535 81.2859 29.8504 76.2147L52.4507 50.7281C53.3898 49.669 54.0694 48.4059 54.4358 47.0386L58.5983 31.5039C59.9016 26.64 64.9011 23.7536 69.765 25.0568L78.5718 27.4166C83.4357 28.7199 86.3222 33.7194 85.0189 38.5833L80.2993 56.197M55.2901 96.6917L77.3073 102.591V102.591C82.1711 103.894 87.1706 101.008 88.4739 96.1443V96.1443M55.2901 96.6917L61.7371 107.858M55.2901 96.6917L66.4567 90.2446M107.584 77.6666L85.5665 71.7671V71.7671C80.7026 70.4639 75.7031 73.3503 74.3998 78.2142V78.2142M107.584 77.6666L101.137 66.5M107.584 77.6666L96.417 84.1137" stroke="#212121" stroke-width="9.11755" stroke-linecap="round" stroke-linejoin="round"/>
</svg>
