<svg width="135" height="134" viewBox="0 0 135 134" fill="none" xmlns="http://www.w3.org/2000/svg">
<path d="M27.6843 58.5827C32.0345 55.8626 36.5588 53.789 41.1572 52.3351M41.1572 52.3351L37.9872 37.7454M41.1572 52.3351C47.6225 50.291 54.2341 49.4719 60.714 49.8032M98.4019 67.6738C101.657 71.2321 104.539 75.29 106.946 79.8208M98.4019 67.6738L108.442 56.6237M98.4019 67.6738C93.8249 62.6709 88.5087 58.6557 82.7312 55.7027M82.7312 55.7027L88.7848 41.9174M82.7312 55.7027C75.8855 52.2036 68.3922 50.1958 60.714 49.8032M60.714 49.8032L62.3642 34.838M76.9858 85.9517C75.0309 93.2476 67.5317 97.5773 60.2358 95.6223C52.94 93.6674 48.6103 86.1682 50.5652 78.8723C52.5201 71.5765 60.0193 67.2468 67.3152 69.2017C74.611 71.1566 78.9407 78.6559 76.9858 85.9517Z" stroke="#212121" stroke-width="9.11755" stroke-linecap="round" stroke-linejoin="round"/>
</svg>
