<svg width="135" height="135" viewBox="0 0 135 135" fill="none" xmlns="http://www.w3.org/2000/svg">
<path d="M86.0013 86.6335L33.16 72.4747C28.2961 71.1714 23.2966 74.0579 21.9934 78.9218V78.9218C20.6901 83.7857 23.5765 88.7852 28.4404 90.0884L90.0885 106.607C94.9524 107.91 99.9519 105.024 101.255 100.16V100.16C102.558 95.296 99.672 90.2965 94.8081 88.9933L86.0013 86.6335ZM86.0013 86.6335L81.2817 104.247M84.5899 39.0594C101.614 43.6209 111.716 61.1191 107.155 78.1427M89.541 73.4231C91.4959 66.1273 87.1662 58.6281 79.8703 56.6731C70.1425 54.0666 64.3696 44.0676 66.9762 34.3398" stroke="#212121" stroke-width="9.11755" stroke-linecap="round" stroke-linejoin="round"/>
</svg>
