<svg width="135" height="135" viewBox="0 0 135 135" fill="none" xmlns="http://www.w3.org/2000/svg">
<path d="M74.5557 41.1031L79.391 49.4781M93.8969 74.6031L89.0616 66.2281M84.2263 57.8531L89.0616 66.2281M84.2263 57.8531L79.391 49.4781M84.2263 57.8531L106.56 44.9589M89.0616 66.2281L52.7699 87.1811L39.5596 83.6414M79.391 49.4781L65.4327 57.5369M106.56 44.9589L103.336 39.3756M106.56 44.9589L109.783 50.5423M39.5596 83.6414L43.0993 70.4311L54.266 63.984M39.5596 83.6414L22.8096 93.312M65.4327 57.5369L68.6562 63.1203M65.4327 57.5369L54.266 63.984M54.266 63.984L57.4895 69.5673" stroke="#212121" stroke-width="9.11755" stroke-linecap="round" stroke-linejoin="round"/>
</svg>
