<svg width="135" height="99" viewBox="0 0 135 99" fill="none" xmlns="http://www.w3.org/2000/svg">
<path d="M90.9946 85.7064C87.0847 100.298 72.0863 108.957 57.4946 105.048C46.1459 102.007 38.3857 92.2585 37.3362 81.2109M90.9946 85.7064C93.6149 75.9271 90.5896 65.965 83.9165 59.2807L88.4033 42.5358C89.7066 37.6719 86.8202 32.6724 81.9563 31.3691L73.1494 29.0093C68.2855 27.7061 63.286 30.5925 61.9827 35.4564L57.4959 52.2013C48.3747 54.6536 40.7737 61.7683 38.1533 71.5477C37.2844 74.7907 37.0363 78.0539 37.3362 81.2109M90.9946 85.7064L85.8342 82.8417C78.8402 78.9591 70.3218 79.0307 63.3941 83.0305C56.4663 87.0302 47.9479 87.1019 40.9539 83.2192L37.3362 81.2109M57.5369 69.6621L57.5413 69.6633" stroke="#212121" stroke-width="9.11755" stroke-linecap="round" stroke-linejoin="round"/>
</svg>
