<svg width="135" height="135" viewBox="0 0 135 135" fill="none" xmlns="http://www.w3.org/2000/svg">
<path d="M91.3762 85.1355C87.4663 99.7272 72.4679 108.387 57.8762 104.477C46.5275 101.436 38.7673 91.6876 37.7178 80.64M91.3762 85.1355C93.9965 75.3561 90.9712 65.3941 84.2981 58.7098L88.7849 41.9649C90.0882 37.101 87.2017 32.1015 82.3378 30.7982L73.531 28.4384C68.6671 27.1351 63.6676 30.0216 62.3643 34.8855L57.8775 51.6304C48.7563 54.0826 41.1553 61.1974 38.5349 70.9767C37.666 74.2198 37.4179 77.4829 37.7178 80.64M91.3762 85.1355L86.2158 82.2708C79.2218 78.3881 70.7034 78.4598 63.7756 82.4595C56.8479 86.4593 48.3295 86.5309 41.3355 82.6483L37.7178 80.64M57.9185 69.0912L57.9229 69.0923" stroke="#212121" stroke-width="9.11755" stroke-linecap="round" stroke-linejoin="round"/>
</svg>
