<svg width="135" height="135" viewBox="0 0 135 135" fill="none" xmlns="http://www.w3.org/2000/svg">
<path d="M71.7847 68.7037L71.7891 68.7049M74.4603 41.1031L78 27.8928M78 27.8928L69.1931 25.533M78 27.8928L86.8069 30.2526M60.3016 93.9443L56.7619 107.155M56.7619 107.155L65.5687 109.514M56.7619 107.155L47.955 104.795M93.8021 60.4446L107.012 56.9049M107.012 56.9049L104.653 48.098M107.012 56.9049L109.372 65.7118M40.9608 74.6034L27.7505 78.1431M27.7505 78.1431L30.1103 86.9499M27.7505 78.1431L25.3907 69.3362M48.0402 48.1826C37.3584 58.8644 37.3583 76.1831 48.0402 86.865C58.7221 97.5469 76.0408 97.5469 86.7227 86.865M48.0402 48.1826C58.7221 37.5007 76.0408 37.5007 86.7227 48.1826C97.4046 58.8644 97.4046 76.1832 86.7227 86.865M48.0402 48.1826L38.3696 38.5119M86.7227 86.865L96.3933 96.5356M96.3933 96.5356L102.84 90.0886M96.3933 96.5356L89.9462 102.983M38.3696 38.5119L31.9225 44.959M38.3696 38.5119L44.8167 32.0649M61.8405 56.5999L61.8449 56.6011M57.1209 74.2137L57.1253 74.2149" stroke="#212121" stroke-width="9.11755" stroke-linecap="round" stroke-linejoin="round"/>
</svg>
